<mxfile host="app.diagrams.net" modified="2021-08-25T03:28:15.120Z" agent="5.0 (Macintosh; Intel Mac OS X 10_15_7) AppleWebKit/537.36 (KHTML, like Gecko) Chrome/86.0.4240.193 Safari/537.36" etag="wqk_FepTQdlxmjH9tehc" version="14.9.8" type="github">
  <diagram id="yG4PCHPbhB7V4cUXst6u" name="Page-1">
    <mxGraphModel dx="946" dy="536" grid="1" gridSize="10" guides="1" tooltips="1" connect="1" arrows="1" fold="1" page="1" pageScale="1" pageWidth="827" pageHeight="1169" math="0" shadow="0">
      <root>
        <mxCell id="0" />
        <mxCell id="1" parent="0" />
        <mxCell id="a_nUh76tisQ-AmnIsXK8-1" style="rounded=0;orthogonalLoop=1;jettySize=auto;html=1;exitX=0;exitY=1;exitDx=0;exitDy=0;entryX=0.7;entryY=0.05;entryDx=0;entryDy=0;entryPerimeter=0;fillColor=#dae8fc;strokeColor=#6c8ebf;" edge="1" parent="1" source="a_nUh76tisQ-AmnIsXK8-3" target="a_nUh76tisQ-AmnIsXK8-6">
          <mxGeometry relative="1" as="geometry" />
        </mxCell>
        <mxCell id="a_nUh76tisQ-AmnIsXK8-2" style="edgeStyle=none;rounded=0;orthogonalLoop=1;jettySize=auto;html=1;exitX=1;exitY=1;exitDx=0;exitDy=0;fillColor=#dae8fc;strokeColor=#6c8ebf;" edge="1" parent="1" source="a_nUh76tisQ-AmnIsXK8-3" target="a_nUh76tisQ-AmnIsXK8-8">
          <mxGeometry relative="1" as="geometry" />
        </mxCell>
        <mxCell id="a_nUh76tisQ-AmnIsXK8-3" value="4" style="ellipse;whiteSpace=wrap;html=1;aspect=fixed;fillColor=#dae8fc;strokeColor=#6c8ebf;" vertex="1" parent="1">
          <mxGeometry x="220" y="110" width="40" height="40" as="geometry" />
        </mxCell>
        <mxCell id="a_nUh76tisQ-AmnIsXK8-4" style="edgeStyle=none;rounded=0;orthogonalLoop=1;jettySize=auto;html=1;exitX=0;exitY=1;exitDx=0;exitDy=0;entryX=0.5;entryY=0;entryDx=0;entryDy=0;fillColor=#dae8fc;strokeColor=#6c8ebf;" edge="1" parent="1" source="a_nUh76tisQ-AmnIsXK8-6" target="a_nUh76tisQ-AmnIsXK8-9">
          <mxGeometry relative="1" as="geometry" />
        </mxCell>
        <mxCell id="a_nUh76tisQ-AmnIsXK8-5" style="edgeStyle=none;rounded=0;orthogonalLoop=1;jettySize=auto;html=1;exitX=1;exitY=1;exitDx=0;exitDy=0;entryX=0.5;entryY=0;entryDx=0;entryDy=0;fillColor=#dae8fc;strokeColor=#6c8ebf;" edge="1" parent="1" source="a_nUh76tisQ-AmnIsXK8-6" target="a_nUh76tisQ-AmnIsXK8-10">
          <mxGeometry relative="1" as="geometry" />
        </mxCell>
        <mxCell id="a_nUh76tisQ-AmnIsXK8-6" value="10" style="ellipse;whiteSpace=wrap;html=1;aspect=fixed;fillColor=#dae8fc;strokeColor=#6c8ebf;" vertex="1" parent="1">
          <mxGeometry x="160" y="190" width="40" height="40" as="geometry" />
        </mxCell>
        <mxCell id="a_nUh76tisQ-AmnIsXK8-7" style="edgeStyle=none;rounded=0;orthogonalLoop=1;jettySize=auto;html=1;exitX=0;exitY=1;exitDx=0;exitDy=0;entryX=0.5;entryY=0;entryDx=0;entryDy=0;fillColor=#dae8fc;strokeColor=#6c8ebf;" edge="1" parent="1" source="a_nUh76tisQ-AmnIsXK8-8" target="a_nUh76tisQ-AmnIsXK8-11">
          <mxGeometry relative="1" as="geometry" />
        </mxCell>
        <mxCell id="a_nUh76tisQ-AmnIsXK8-8" value="3" style="ellipse;whiteSpace=wrap;html=1;aspect=fixed;fillColor=#dae8fc;strokeColor=#6c8ebf;" vertex="1" parent="1">
          <mxGeometry x="270" y="190" width="40" height="40" as="geometry" />
        </mxCell>
        <mxCell id="a_nUh76tisQ-AmnIsXK8-9" value="5" style="ellipse;whiteSpace=wrap;html=1;aspect=fixed;fillColor=#dae8fc;strokeColor=#6c8ebf;" vertex="1" parent="1">
          <mxGeometry x="120" y="270" width="40" height="40" as="geometry" />
        </mxCell>
        <mxCell id="a_nUh76tisQ-AmnIsXK8-10" value="1" style="ellipse;whiteSpace=wrap;html=1;aspect=fixed;fillColor=#dae8fc;strokeColor=#6c8ebf;" vertex="1" parent="1">
          <mxGeometry x="190" y="270" width="40" height="40" as="geometry" />
        </mxCell>
        <mxCell id="a_nUh76tisQ-AmnIsXK8-11" value="2" style="ellipse;whiteSpace=wrap;html=1;aspect=fixed;fillColor=#dae8fc;strokeColor=#6c8ebf;" vertex="1" parent="1">
          <mxGeometry x="240" y="270" width="40" height="40" as="geometry" />
        </mxCell>
      </root>
    </mxGraphModel>
  </diagram>
</mxfile>
